<svg width="48" height="48" viewBox="0 0 48 48" xmlns="http://www.w3.org/2000/svg" xmlns:xlink="http://www.w3.org/1999/xlink" fill="none" overflow="hidden"><style>
.MsftOfcThm_Accent5_lumMod_20_lumOff_80_Fill_v2 {
 fill:#FFEDCC; 
}
</style>
<path d="M19 20C22.866 20 26 16.866 26 13 26 9.13401 22.866 6 19 6 15.134 6 12 9.13401 12 13 12 16.866 15.134 20 19 20Z" class="MsftOfcThm_Accent5_lumMod_20_lumOff_80_Fill_v2" stroke="#C00000" stroke-width="2" stroke-linecap="round" stroke-linejoin="round" fill="#FFEDCC"/><path d="M32 22 44 22 32 22Z" class="MsftOfcThm_Accent5_lumMod_20_lumOff_80_Fill_v2" stroke="#C00000" fill="#FFEDCC" fill-rule="evenodd" clip-rule="evenodd"/><path d="M32 22 44 22" class="MsftOfcThm_Accent5_lumMod_20_lumOff_80_Fill_v2" stroke="#C00000" stroke-width="2" stroke-linecap="round" stroke-linejoin="round" fill="#FFEDCC"/><path d="M32 16 44 16 32 16Z" class="MsftOfcThm_Accent5_lumMod_20_lumOff_80_Fill_v2" stroke="#C00000" fill="#FFEDCC" fill-rule="evenodd" clip-rule="evenodd"/><path d="M32 16 44 16" class="MsftOfcThm_Accent5_lumMod_20_lumOff_80_Fill_v2" stroke="#C00000" stroke-width="2" stroke-linecap="round" stroke-linejoin="round" fill="#FFEDCC"/><path d="M35 13 35 25 35 13Z" class="MsftOfcThm_Accent5_lumMod_20_lumOff_80_Fill_v2" stroke="#C00000" fill="#FFEDCC" fill-rule="evenodd" clip-rule="evenodd"/><path d="M35 13 35 25" class="MsftOfcThm_Accent5_lumMod_20_lumOff_80_Fill_v2" stroke="#C00000" stroke-width="2" stroke-linecap="round" stroke-linejoin="round" fill="#FFEDCC"/><path d="M41 13 41 25 41 13Z" class="MsftOfcThm_Accent5_lumMod_20_lumOff_80_Fill_v2" stroke="#C00000" fill="#FFEDCC" fill-rule="evenodd" clip-rule="evenodd"/><path d="M41 13 41 25" class="MsftOfcThm_Accent5_lumMod_20_lumOff_80_Fill_v2" stroke="#C00000" stroke-width="2" stroke-linecap="round" stroke-linejoin="round" fill="#FFEDCC"/><path d="M4 40.8 4 42 34 42 34 40.8C34 36.3196 34 34.0794 33.1281 32.3681 32.3611 30.8628 31.1372 29.6389 29.6319 28.8719 27.9206 28 25.6804 28 21.2 28L16.8 28C12.3196 28 10.0794 28 8.36808 28.8719 6.86278 29.6389 5.63893 30.8628 4.87195 32.3681 4 34.0794 4 36.3196 4 40.8Z" class="MsftOfcThm_Accent5_lumMod_20_lumOff_80_Fill_v2" stroke="#C00000" stroke-width="2" stroke-linecap="round" stroke-linejoin="round" fill="#FFEDCC"/></svg>